<mxfile host="Electron" modified="2024-07-15T13:01:39.181Z" agent="Mozilla/5.0 (Windows NT 10.0; Win64; x64) AppleWebKit/537.36 (KHTML, like Gecko) draw.io/24.6.4 Chrome/124.0.6367.207 Electron/30.0.6 Safari/537.36" etag="TNvxP-g7LkWKcosMQTVb" version="24.6.4" type="device">
  <diagram name="Page-1" id="BPlnh9W2TdtmaW7FqwBL">
    <mxGraphModel dx="862" dy="546" grid="1" gridSize="10" guides="1" tooltips="1" connect="1" arrows="1" fold="1" page="1" pageScale="1" pageWidth="827" pageHeight="1169" math="0" shadow="0">
      <root>
        <mxCell id="0" />
        <mxCell id="1" parent="0" />
        <mxCell id="UVLS8qO6oxnrfLZlEGfA-4" style="edgeStyle=orthogonalEdgeStyle;rounded=0;orthogonalLoop=1;jettySize=auto;html=1;exitX=0.75;exitY=0;exitDx=0;exitDy=0;entryX=0;entryY=0.5;entryDx=0;entryDy=0;" parent="1" source="UVLS8qO6oxnrfLZlEGfA-1" target="UVLS8qO6oxnrfLZlEGfA-2" edge="1">
          <mxGeometry relative="1" as="geometry" />
        </mxCell>
        <mxCell id="UVLS8qO6oxnrfLZlEGfA-7" value="new member details" style="edgeLabel;html=1;align=center;verticalAlign=middle;resizable=0;points=[];" parent="UVLS8qO6oxnrfLZlEGfA-4" vertex="1" connectable="0">
          <mxGeometry x="0.1669" y="-2" relative="1" as="geometry">
            <mxPoint y="-2" as="offset" />
          </mxGeometry>
        </mxCell>
        <mxCell id="UVLS8qO6oxnrfLZlEGfA-6" style="edgeStyle=orthogonalEdgeStyle;rounded=0;orthogonalLoop=1;jettySize=auto;html=1;exitX=0.75;exitY=1;exitDx=0;exitDy=0;entryX=0;entryY=0.5;entryDx=0;entryDy=0;" parent="1" source="UVLS8qO6oxnrfLZlEGfA-1" target="UVLS8qO6oxnrfLZlEGfA-3" edge="1">
          <mxGeometry relative="1" as="geometry" />
        </mxCell>
        <mxCell id="UVLS8qO6oxnrfLZlEGfA-15" value="member id" style="edgeLabel;html=1;align=center;verticalAlign=middle;resizable=0;points=[];" parent="UVLS8qO6oxnrfLZlEGfA-6" vertex="1" connectable="0">
          <mxGeometry x="0.1983" y="-1" relative="1" as="geometry">
            <mxPoint y="-9" as="offset" />
          </mxGeometry>
        </mxCell>
        <mxCell id="UVLS8qO6oxnrfLZlEGfA-16" value="new details" style="edgeLabel;html=1;align=center;verticalAlign=middle;resizable=0;points=[];" parent="UVLS8qO6oxnrfLZlEGfA-6" vertex="1" connectable="0">
          <mxGeometry x="0.2134" relative="1" as="geometry">
            <mxPoint y="7" as="offset" />
          </mxGeometry>
        </mxCell>
        <mxCell id="UVLS8qO6oxnrfLZlEGfA-1" value="Librarian" style="html=1;dashed=0;whiteSpace=wrap;" parent="1" vertex="1">
          <mxGeometry x="60" y="230" width="100" height="50" as="geometry" />
        </mxCell>
        <mxCell id="UVLS8qO6oxnrfLZlEGfA-9" style="edgeStyle=orthogonalEdgeStyle;rounded=0;orthogonalLoop=1;jettySize=auto;html=1;exitX=1;exitY=0.5;exitDx=0;exitDy=0;entryX=0.25;entryY=0;entryDx=0;entryDy=0;" parent="1" source="UVLS8qO6oxnrfLZlEGfA-2" target="UVLS8qO6oxnrfLZlEGfA-8" edge="1">
          <mxGeometry relative="1" as="geometry" />
        </mxCell>
        <mxCell id="UVLS8qO6oxnrfLZlEGfA-2" value="Add&amp;nbsp;&lt;div&gt;member&lt;/div&gt;" style="shape=ellipse;html=1;dashed=0;whiteSpace=wrap;aspect=fixed;perimeter=ellipsePerimeter;" parent="1" vertex="1">
          <mxGeometry x="350" y="150" width="80" height="80" as="geometry" />
        </mxCell>
        <mxCell id="UVLS8qO6oxnrfLZlEGfA-12" style="edgeStyle=orthogonalEdgeStyle;rounded=0;orthogonalLoop=1;jettySize=auto;html=1;exitX=1;exitY=0.5;exitDx=0;exitDy=0;entryX=0.25;entryY=1;entryDx=0;entryDy=0;" parent="1" source="UVLS8qO6oxnrfLZlEGfA-3" target="UVLS8qO6oxnrfLZlEGfA-8" edge="1">
          <mxGeometry relative="1" as="geometry" />
        </mxCell>
        <mxCell id="UVLS8qO6oxnrfLZlEGfA-18" value="new details of member" style="edgeLabel;html=1;align=center;verticalAlign=middle;resizable=0;points=[];" parent="UVLS8qO6oxnrfLZlEGfA-12" vertex="1" connectable="0">
          <mxGeometry x="-0.4371" y="1" relative="1" as="geometry">
            <mxPoint x="21" as="offset" />
          </mxGeometry>
        </mxCell>
        <mxCell id="UVLS8qO6oxnrfLZlEGfA-3" value="Edit&amp;nbsp;&lt;div&gt;member/&lt;/div&gt;&lt;div&gt;membership&lt;/div&gt;" style="shape=ellipse;html=1;dashed=0;whiteSpace=wrap;aspect=fixed;perimeter=ellipsePerimeter;" parent="1" vertex="1">
          <mxGeometry x="350" y="290" width="80" height="80" as="geometry" />
        </mxCell>
        <mxCell id="UVLS8qO6oxnrfLZlEGfA-11" style="edgeStyle=orthogonalEdgeStyle;rounded=0;orthogonalLoop=1;jettySize=auto;html=1;exitX=0;exitY=0.75;exitDx=0;exitDy=0;entryX=0.5;entryY=0;entryDx=0;entryDy=0;" parent="1" source="UVLS8qO6oxnrfLZlEGfA-8" target="UVLS8qO6oxnrfLZlEGfA-3" edge="1">
          <mxGeometry relative="1" as="geometry" />
        </mxCell>
        <mxCell id="UVLS8qO6oxnrfLZlEGfA-17" value="member old details" style="edgeLabel;html=1;align=center;verticalAlign=middle;resizable=0;points=[];" parent="UVLS8qO6oxnrfLZlEGfA-11" vertex="1" connectable="0">
          <mxGeometry x="-0.2318" y="3" relative="1" as="geometry">
            <mxPoint y="-3" as="offset" />
          </mxGeometry>
        </mxCell>
        <mxCell id="UVLS8qO6oxnrfLZlEGfA-8" value="Member records" style="html=1;dashed=0;whiteSpace=wrap;shape=partialRectangle;right=0;" parent="1" vertex="1">
          <mxGeometry x="600" y="240" width="100" height="30" as="geometry" />
        </mxCell>
      </root>
    </mxGraphModel>
  </diagram>
</mxfile>
